<?xml version="1.0" encoding="utf-8"?>
<svg aria-hidden="true" focusable="false" data-prefix="fab" data-icon="js-square" class="svg-inline--fa fa-js-square fa-w-14" role="img" viewBox="0 0 448 512" xmlns="http://www.w3.org/2000/svg" xmlns:bx="https://boxy-svg.com">
  <defs>
    <bx:guide x="331.63" y="235.106" angle="90"/>
    <bx:guide x="266.966" y="257.008" angle="0"/>
    <bx:guide x="293.814" y="276.671" angle="90"/>
    <bx:guide x="389.105" y="252.093" angle="90"/>
    <bx:guide x="216.674" y="323.939" angle="0"/>
    <bx:guide x="348.266" y="369.694" angle="0"/>
    <bx:guide x="116.845" y="263.059" angle="0"/>
    <bx:guide x="167.516" y="209.741" angle="0"/>
  </defs>
  <path d="M 400 32 L 48 32 C 21.5 32 0 53.5 0 80 L 0 432 C 0 458.5 21.5 480 48 480 L 400 480 C 426.5 480 448 458.5 448 432 L 448 80 C 448 53.5 426.5 32 400 32 Z M 216.674 235.106 L 266.966 235.076 L 266.966 276.671 L 216.674 276.671 L 216.674 300 L 216.394 444.595 L 167.516 444.595 L 167.573 295.159 L 167.516 276.671 L 116.845 276.671 L 116.845 235.106 C 116.845 235.106 168.046 235.295 168.046 235.294 L 216.674 235.106 Z M 343.4 444.9 C 304.3 444.9 279 426.3 266.7 401.9 L 301 382.1 C 310 396.8 321.8 407.7 342.5 407.7 C 359.9 407.7 371.1 399 371.1 386.9 C 371.1 372.5 359.7 367.4 340.4 358.9 L 329.9 354.4 C 299.5 341.5 279.4 325.2 279.4 290.9 C 279.4 259.3 303.5 235.237 341 235.3 C 367.8 235.345 387 245.45 400.8 269 L 368 290 C 360.8 277.1 353 272 340.9 272 C 328.6 272 320.8 279.8 320.8 290 C 320.8 302.6 328.6 307.7 346.7 315.6 L 357.2 320.1 C 393 335.4 413.1 351.1 413.1 386.3 C 413.1 424.1 383.3 444.9 343.4 444.9 Z" style="fill: rgb(47, 114, 188);"/>
</svg>